<svg width="231" height="32" viewBox="0 0 231 32" fill="none" xmlns="http://www.w3.org/2000/svg">
<path d="M0.859375 31V0.921875H5.67188V13.5117H8.50781V18.1953H5.67188V31H0.859375ZM10.7852 18.1953V13.5117H13.6211V0.921875H18.4336V31H13.6211V18.1953H10.7852ZM21.9141 31V0.921875H37.5547V5.64844H26.7266V13.6406H33.5156V18.4531H26.7266V26.2305H37.5547V31H21.9141ZM40.5625 31L46.2344 5.77734H46.8789L48.8555 14.8867L45.2891 31H40.5625ZM48.5117 26.7031L49.5 22.0195H52.7227L48.082 0.921875H52.8086L59.7266 31H54.957L54.0117 26.7031H48.5117ZM62.4336 31V0.921875H67.2461V26.2734H78.5898V31H62.4336ZM80.0078 5.60547V0.921875H98.6133V5.60547H91.7383V31H86.9258V5.60547H80.0078ZM101.062 31V0.921875H105.875V13.5117H108.711V18.1953H105.875V31H101.062ZM110.988 18.1953V13.5117H113.824V0.921875H118.637V31H113.824V18.1953H110.988ZM131.355 24.2109L135.695 22.6641C135.867 24.526 136.884 25.8151 138.746 26.5312C139.09 26.6458 139.262 26.7031 139.262 26.7031V31.1289C136.798 31.1289 134.707 30.069 132.988 27.9492C131.928 26.6029 131.384 25.3568 131.355 24.2109ZM131.699 9.08594C131.699 5.96354 133.046 3.61458 135.738 2.03906C136.999 1.32292 138.173 0.950521 139.262 0.921875V5.43359C138.374 5.57682 137.6 6.09245 136.941 6.98047C136.512 7.61068 136.297 8.28385 136.297 9C136.297 10.4896 137.371 11.6784 139.52 12.5664C140.035 12.7669 140.837 13.0391 141.926 13.3828C143.301 13.8125 144.26 14.1562 144.805 14.4141C147.297 15.6458 148.915 17.1068 149.66 18.7969C150.09 19.7995 150.305 20.9023 150.305 22.1055C150.305 24.6263 149.331 26.8177 147.383 28.6797C145.635 30.3125 143.673 31.1289 141.496 31.1289V26.7031C142.585 26.6458 143.559 26.1302 144.418 25.1562C145.134 24.2969 145.492 23.3086 145.492 22.1914C145.492 20.444 144.275 19.1263 141.84 18.2383C141.324 18.0378 140.522 17.7799 139.434 17.4648C138.23 17.1211 137.414 16.849 136.984 16.6484C134.578 15.5885 133.031 14.2279 132.344 12.5664C131.914 11.5638 131.699 10.4036 131.699 9.08594ZM141.496 5.43359V0.921875C143.96 0.921875 146.022 1.98177 147.684 4.10156C148.572 5.2474 149.044 6.29297 149.102 7.23828L144.676 8.69922C144.561 7.83984 144.232 7.13802 143.688 6.59375C143.172 6.04948 142.685 5.72005 142.227 5.60547L141.496 5.43359ZM151.98 5.60547V0.921875H170.586V5.60547H163.711V31H158.898V5.60547H151.98ZM172.648 31L178.32 5.77734H178.965L180.941 14.8867L177.375 31H172.648ZM180.598 26.7031L181.586 22.0195H184.809L180.168 0.921875H184.895L191.812 31H187.043L186.098 26.7031H180.598ZM193.445 5.60547V0.921875H212.051V5.60547H205.176V31H200.363V5.60547H193.445ZM214.543 31V0.921875H230.184V5.64844H219.355V13.6406H226.145V18.4531H219.355V26.2305H230.184V31H214.543Z" fill="#4F883C" style="fill:#4F883C;fill:color(display-p3 0.3098 0.5333 0.2353);fill-opacity:1;"/>
</svg>
